<svg width="18" height="20" viewBox="0 0 18 20" fill="none" xmlns="http://www.w3.org/2000/svg">
<path d="M17.8894 3.18056V14.4806C17.8894 16.4606 16.2794 18.0706 14.2994 18.0706C12.3294 18.0706 10.7094 16.4606 10.7094 14.4806C10.7094 12.5106 12.3294 10.9006 14.2994 10.9006C15.1394 10.9006 15.8894 11.1906 16.4994 11.6706V5.72056L7.28938 8.34056V16.4106C7.28938 18.3906 5.66937 20.0006 3.69937 20.0006C1.71937 20.0006 0.109375 18.3906 0.109375 16.4106C0.109375 14.4406 1.71937 12.8306 3.69937 12.8306C4.52938 12.8306 5.27938 13.1206 5.88938 13.5906V4.75056C5.88938 3.28056 6.77938 2.14056 8.18937 1.76056L13.9694 0.180558C15.1394 -0.139442 16.1294 -0.0294423 16.8294 0.510558C17.5394 1.04056 17.8894 1.94056 17.8894 3.18056Z" fill="#3DD9B3"/>
</svg>
