<svg width="18" height="22" viewBox="0 0 18 22" fill="none" xmlns="http://www.w3.org/2000/svg">
<path d="M17.0025 4.44408L12.8325 0.694077C12.695 0.569053 12.5159 0.499562 12.33 0.499077H3.165C2.54735 0.480787 1.9474 0.706761 1.4953 1.12798C1.04319 1.54919 0.775394 2.13168 0.75 2.74908V19.2491C0.775394 19.8665 1.04319 20.449 1.4953 20.8702C1.9474 21.2914 2.54735 21.5174 3.165 21.4991H14.835C15.4526 21.5174 16.0526 21.2914 16.5047 20.8702C16.9568 20.449 17.2246 19.8665 17.25 19.2491V4.99908C17.2498 4.89442 17.2276 4.79097 17.185 4.69539C17.1424 4.5998 17.0802 4.5142 17.0025 4.44408ZM8.8725 7.24908H9.1275C9.69602 7.24855 10.2519 7.41673 10.7248 7.73233C11.1976 8.04793 11.5662 8.49675 11.7839 9.02196C12.0015 9.54717 12.0584 10.1251 11.9473 10.6827C11.8363 11.2403 11.5623 11.7523 11.16 12.1541L10.155 13.1591C10.0257 13.2846 9.92311 13.4351 9.85351 13.6014C9.7839 13.7677 9.74869 13.9463 9.75 14.1266C9.75 14.3255 9.67098 14.5163 9.53033 14.6569C9.38968 14.7976 9.19891 14.8766 9 14.8766C8.80109 14.8766 8.61032 14.7976 8.46967 14.6569C8.32902 14.5163 8.25 14.3255 8.25 14.1266C8.25011 13.3646 8.55216 12.6338 9.09 12.0941L10.095 11.0891C10.2243 10.9635 10.3269 10.813 10.3965 10.6468C10.4661 10.4805 10.5013 10.3018 10.5 10.1216C10.5 9.75757 10.3554 9.40847 10.098 9.15107C9.84061 8.89368 9.49151 8.74908 9.1275 8.74908H8.8725C8.50849 8.74908 8.15939 8.89368 7.902 9.15107C7.6446 9.40847 7.5 9.75757 7.5 10.1216C7.5 10.3205 7.42098 10.5113 7.28033 10.6519C7.13968 10.7926 6.94891 10.8716 6.75 10.8716C6.55109 10.8716 6.36032 10.7926 6.21967 10.6519C6.07902 10.5113 6 10.3205 6 10.1216C6.00198 9.36035 6.30525 8.63087 6.84352 8.0926C7.38179 7.55433 8.11127 7.25106 8.8725 7.24908ZM8.25 16.2491C8.24633 16.2016 8.24633 16.154 8.25 16.1066C8.25695 16.0569 8.27216 16.0087 8.295 15.9641C8.31142 15.9163 8.33412 15.8709 8.3625 15.8291C8.39019 15.7898 8.42025 15.7522 8.4525 15.7166C8.52383 15.6483 8.60794 15.5948 8.7 15.5591C8.83658 15.5016 8.98712 15.486 9.13261 15.514C9.2781 15.542 9.41203 15.6125 9.5175 15.7166C9.54975 15.7522 9.57981 15.7898 9.6075 15.8291C9.63588 15.8709 9.65858 15.9163 9.675 15.9641C9.69784 16.0087 9.71305 16.0569 9.72 16.1066C9.73374 16.1532 9.74377 16.2009 9.75 16.2491C9.74724 16.4477 9.66955 16.6379 9.5325 16.7816L9.42 16.8716C9.37819 16.9 9.33279 16.9227 9.285 16.9391L9.15 16.9991H9C8.90199 16.9979 8.80517 16.9775 8.715 16.9391C8.62294 16.9034 8.53883 16.8499 8.4675 16.7816C8.33045 16.6379 8.25276 16.4477 8.25 16.2491Z" fill="#6295F2"/>
<path d="M17.25 5V6.5H12.75C12.1533 6.5 11.581 6.26295 11.159 5.84099C10.7371 5.41903 10.5 4.84674 10.5 4.25V0.5H12.33C12.5159 0.500485 12.695 0.569977 12.8325 0.695L17.0025 4.445C17.0802 4.51512 17.1424 4.60073 17.185 4.69631C17.2276 4.79189 17.2498 4.89534 17.25 5Z" fill="#98B8FE"/>
<path d="M17.16 16.0997C17.16 16.0878 17.1647 16.0763 17.1732 16.0679C17.1816 16.0594 17.1931 16.0547 17.205 16.0547C17.2169 16.0547 17.2284 16.0594 17.2368 16.0679C17.2453 16.0763 17.25 16.0878 17.25 16.0997V19.2497C17.2246 19.8671 16.9568 20.4496 16.5047 20.8708C16.0526 21.292 15.4526 21.518 14.835 21.4997H3.165C2.54735 21.518 1.9474 21.292 1.4953 20.8708C1.04319 20.4496 0.775394 19.8671 0.75 19.2497V16.1147C0.75 16.1028 0.754741 16.0913 0.76318 16.0829C0.771619 16.0744 0.783065 16.0697 0.795 16.0697C0.806935 16.0697 0.818381 16.0744 0.82682 16.0829C0.835259 16.0913 0.84 16.1028 0.84 16.1147C1.00286 16.5993 1.31622 17.0193 1.73443 17.3134C2.15264 17.6075 2.65384 17.7603 3.165 17.7497H14.835C15.348 17.7593 15.8506 17.6043 16.2691 17.3073C16.6875 17.0104 16.9997 16.5871 17.16 16.0997Z" fill="url(#paint0_linear_276_1269)"/>
<defs>
<linearGradient id="paint0_linear_276_1269" x1="9" y1="21.4997" x2="9" y2="16.0697" gradientUnits="userSpaceOnUse">
<stop offset="0.14" stop-color="#3758C0"/>
<stop offset="0.24" stop-color="#446BCF"/>
<stop offset="0.4" stop-color="#5582E2"/>
<stop offset="0.55" stop-color="#5F90EE"/>
<stop offset="0.68" stop-color="#6295F2"/>
</linearGradient>
</defs>
</svg>
