<svg width="24" height="22" viewBox="0 0 24 22" fill="none" xmlns="http://www.w3.org/2000/svg">
<path d="M6.24835 17.3809C5.46528 17.3795 4.70237 17.1371 4.06695 16.6878C3.43153 16.2385 2.95558 15.605 2.70606 14.8763L2.67106 14.7634C2.55904 14.4192 2.50071 14.0604 2.49804 13.6991V7.00504L0.0718466 14.9558C-0.076644 15.5216 0.00697574 16.1219 0.30472 16.6278C0.602464 17.1336 1.09054 17.5045 1.66398 17.6607L17.1282 21.7264C17.3213 21.7755 17.5143 21.7991 17.7043 21.7991C18.7004 21.7991 19.6104 21.1501 19.8655 20.1938L20.7665 17.3809H6.24835ZM8.99857 7.0718C10.1017 7.0718 10.9987 6.19111 10.9987 5.10817C10.9987 4.02522 10.1017 3.14453 8.99857 3.14453C7.89548 3.14453 6.99841 4.02522 6.99841 5.10817C6.99841 6.19111 7.89548 7.0718 8.99857 7.0718Z" fill="#F9AB72"/>
<path d="M21.4995 0.199219H6.49825C5.8354 0.199998 5.19992 0.458852 4.73122 0.918999C4.26251 1.37915 3.99884 2.00302 3.99805 2.65376V13.4538C3.99805 14.8067 5.12014 15.9083 6.49825 15.9083H21.4995C22.8776 15.9083 23.9997 14.8067 23.9997 13.4538V2.65376C23.9997 1.30082 22.8776 0.199219 21.4995 0.199219ZM6.49825 2.16286H21.4995C21.6321 2.16286 21.7593 2.21458 21.8531 2.30664C21.9468 2.3987 21.9995 2.52357 21.9995 2.65376V9.62369L18.8403 6.00471C18.6732 5.81633 18.4672 5.66505 18.236 5.56094C18.0047 5.45682 17.7535 5.40226 17.4991 5.40089C17.2439 5.40219 16.992 5.45832 16.7612 5.56534C16.5304 5.67237 16.3262 5.82769 16.163 6.02042L12.4487 10.3974L11.2386 9.21231C10.9096 8.88975 10.4636 8.70858 9.99854 8.70858C9.53352 8.70858 9.08751 8.88975 8.75844 9.21231L5.99821 11.9211V2.65376C5.99821 2.52357 6.05089 2.3987 6.14467 2.30664C6.23844 2.21458 6.36563 2.16286 6.49825 2.16286Z" fill="#F9AB72"/>
</svg>
