<svg width="21" height="16" viewBox="0 0 21 16" fill="none" xmlns="http://www.w3.org/2000/svg">
<path d="M16.1273 15.2761H11.8363V10.9402H13.2544C13.614 10.9402 13.8265 10.5316 13.614 10.2373L10.8555 6.4204C10.6798 6.17521 10.3161 6.17521 10.1404 6.4204L7.3819 10.2373C7.16939 10.5316 7.37781 10.9402 7.74152 10.9402H9.15958V15.2761H4.3537C2.20821 15.1576 0.5 13.1511 0.5 10.977C0.5 9.47721 1.31324 8.16948 2.5188 7.4625C2.40846 7.16417 2.35125 6.84541 2.35125 6.51031C2.35125 4.97782 3.5895 3.73957 5.12199 3.73957C5.453 3.73957 5.77176 3.79678 6.07009 3.90712C6.95689 2.02727 8.86943 0.723633 11.0926 0.723633C13.9696 0.727719 16.3398 2.93042 16.6095 5.73794C18.8204 6.11799 20.5 8.1654 20.5 10.4825C20.5 12.959 18.5711 15.1045 16.1273 15.2761Z" fill="white"/>
</svg>
